<?xml version="1.0" encoding="utf-8"?>
<!-- Generator: Adobe Illustrator 25.4.8, SVG Export Plug-In . SVG Version: 6.00 Build 0)  -->
<svg version="1.1" id="layer_1" xmlns="http://www.w3.org/2000/svg" xmlns:xlink="http://www.w3.org/1999/xlink" x="0px"
     y="0px" viewBox="0 0 96 96" enable-background="new 0 0 96 96" xml:space="preserve">
<path d="M74.7,95.9H21.3C9.6,95.9,0,86.3,0,74.6V21.2C0,9.4,9.6-0.1,21.3-0.1h53.4C86.5-0.1,96,9.4,96,21.2v53.4
	C96,86.3,86.5,95.9,74.7,95.9z"/>
    <g>
	<path fill="#FFFFFF" d="M76.6,57.6L66.6,47.5c-0.1-0.1-0.3-0.2-0.4-0.4l-4.3,4.1c0.1,0.1,0.3,0.2,0.4,0.4l10.2,10.2
		c1.5,1.5,2.2,3.4,2.2,5.3c0,1.9-0.7,3.8-2.2,5.3c-2.9,2.9-7.6,2.9-10.5,0L51.9,62.2c-0.1-0.1-0.1-0.1-0.2-0.2l-0.6-0.6L47.3,66
		c0.1,0.1,0.2,0.3,0.4,0.4l10.1,10.1c5.2,5.2,13.7,5.2,18.9,0C81.8,71.3,81.8,62.8,76.6,57.6z"/>
        <path fill="#FFFFFF" d="M34.3,44.6c-0.2-0.2-0.4-0.4-0.6-0.5L23.6,34c-1.5-1.5-2.2-3.4-2.2-5.3c0-1.9,0.7-3.8,2.2-5.3
		c2.9-2.9,7.6-2.9,10.5,0l10.1,10.1c0.1,0.1,0.1,0.1,0.2,0.2l0.8,0.8l4.1-4.1c-0.3-0.3-0.6-0.7-0.9-1L38.3,19.3
		c-5.2-5.2-13.7-5.2-18.9,0c-5.2,5.2-5.2,13.7,0,18.9l10.1,10.1c0.3,0.3,0.7,0.6,1,0.9l4.2-4.2L34.3,44.6z"/>
        <g>
		<path fill="#FFFFFF" d="M39.9,58.8c-0.7,0-1.5-0.3-2-0.8c-1.1-1.1-1.1-2.9,0-4l14-14c1.1-1.1,2.9-1.1,4,0c1.1,1.1,1.1,2.9,0,4
			l-14,14C41.4,58.5,40.7,58.8,39.9,58.8z"/>
	</g>

        <linearGradient id="SVGID_1_" gradientUnits="userSpaceOnUse" x1="1030.5677" y1="1356.3802" x2="1027.0604" y2="1352.873" gradientTransform="matrix(1.5106 0.2551 0.2551 1.5106 -1832.5966 -2256.5344)">
		<stop  offset="0" style="stop-color:#FFFFFF;stop-opacity:0"/>
            <stop  offset="0.8" style="stop-color:#000000;stop-opacity:0.5"/>
	</linearGradient>
        <polygon fill="url(#SVGID_1_)" points="72.5,53 67.9,57.6 61.7,51.4 66.3,46.9 	"/>

        <linearGradient id="SVGID_00000156576504180358268140000011391475928798426793_" gradientUnits="userSpaceOnUse" x1="1010.4111" y1="1376.537" x2="1006.9039" y2="1373.0297" gradientTransform="matrix(1.5033 0.2712 0.2712 1.5033 -1836.8174 -2273.3872)">
		<stop  offset="0" style="stop-color:#FFFFFF;stop-opacity:0"/>
            <stop  offset="0.8" style="stop-color:#000000;stop-opacity:0.5"/>
	</linearGradient>
        <polyline fill="url(#SVGID_00000156576504180358268140000011391475928798426793_)" points="57.7,67.8 53.2,72.3 47,66.1 51.5,61.6
			"/>

        <linearGradient id="SVGID_00000081633370553164923180000007411890321612659866_" gradientUnits="userSpaceOnUse" x1="1955.0448" y1="5539.7759" x2="1951.5376" y2="5536.2686" gradientTransform="matrix(-1.4967 -0.2993 -0.2993 -1.4967 4610.0112 8916.8535)">
		<stop  offset="0" style="stop-color:#FFFFFF;stop-opacity:0"/>
            <stop  offset="0.8" style="stop-color:#000000;stop-opacity:0.5"/>
	</linearGradient>
        <polygon fill="url(#SVGID_00000081633370553164923180000007411890321612659866_)" points="23.8,42.7 28.2,38.3 34.4,44.6 30.1,49
		"/>

        <linearGradient id="SVGID_00000000224849839090654290000016642358180423096969_" gradientUnits="userSpaceOnUse" x1="1935.2156" y1="5559.6123" x2="1931.7084" y2="5556.105" gradientTransform="matrix(-1.5063 -0.2896 -0.2896 -1.5063 4566.0044 8960.8604)">
		<stop  offset="0" style="stop-color:#FFFFFF;stop-opacity:0"/>
            <stop  offset="0.8" style="stop-color:#000000;stop-opacity:0.5"/>
	</linearGradient>
        <polygon fill="url(#SVGID_00000000224849839090654290000016642358180423096969_)" points="38.4,28 42.9,23.6 49.2,29.9 44.7,34.3
		"/>
        <path fill="#FFFFFF" d="M52.1,54.2c0.2,0.9,0.3,1.7,0.3,2.6c0,3.6-1.4,6.9-3.9,9.4L38.3,76.4c-2.6,2.6-6,3.9-9.4,3.9
		c-3.4,0-6.8-1.3-9.4-3.9c-2.5-2.5-3.9-5.9-3.9-9.4c0-3.6,1.4-6.9,3.9-9.4l10.1-10.1c2.5-2.5,5.9-3.9,9.4-3.9c0.9,0,1.8,0.1,2.6,0.3
		L23.6,61.7c-1.4,1.4-2.2,3.3-2.2,5.3c0,2,0.8,3.9,2.2,5.3c2.9,2.9,7.6,2.9,10.5,0L52.1,54.2z"/>
        <path fill="#FFFFFF" d="M61.7,23.6c1.5-1.5,3.4-2.2,5.3-2.2c1.9,0,3.8,0.7,5.3,2.2c2.9,2.9,2.9,7.6,0,10.5L62.1,44.2
		c-0.1,0.1-0.1,0.1-0.2,0.2L54.3,52c0.9,0.2,1.7,0.3,2.6,0.3c3.4,0,6.8-1.3,9.4-3.9l10.1-10.1c5.2-5.2,5.2-13.7,0-18.9
		c-5.2-5.2-13.7-5.2-18.9,0L47.4,29.5c-3.3,3.3-4.5,7.8-3.6,12.1"/>
</g>
</svg>
