<svg width="547" height="124" viewBox="0 0 547 124" fill="none" xmlns="http://www.w3.org/2000/svg">
    <path d="M46.5382 82.874C45.1771 82.874 43.7637 82.3494 42.7167 81.3002C40.6228 79.2018 40.6228 75.7394 42.7167 73.641L69.3623 46.9389C71.4562 44.8405 74.9113 44.8405 77.0052 46.9389C79.0992 49.0373 79.0992 52.4997 77.0052 54.5981L50.3596 81.3002C49.3127 82.3494 47.8992 82.874 46.5382 82.874Z" fill="white"/>
    <path d="M116.476 80.6187L97.2644 61.3659C97.0027 61.1036 96.741 60.8938 96.5316 60.6315L88.3651 68.3955C88.6269 68.6054 88.8886 68.8677 89.1504 69.0775L108.519 88.4877C111.294 91.2681 112.655 94.8878 112.655 98.5076C112.655 102.127 111.294 105.8 108.519 108.58C102.97 114.141 94.0188 114.141 88.4698 108.58L69.2578 89.3271C69.1531 89.2222 69.0484 89.0648 68.8913 88.9599L67.7397 87.8057L60.5679 96.5666C60.7773 96.8289 61.039 97.0912 61.3008 97.301L80.5128 116.554C90.4067 126.469 106.583 126.469 116.476 116.554C126.37 106.744 126.37 90.5861 116.476 80.6187Z" fill="white"/>
    <path d="M35.7549 55.8043C35.3361 55.4895 34.9696 55.1223 34.6032 54.7551L15.3912 35.5023C12.6167 32.7219 11.2556 29.1022 11.2556 25.4824C11.2556 21.8627 12.6167 18.1905 15.3912 15.4101C20.9401 9.84936 29.8918 9.84936 35.4408 15.4101L54.6528 34.6629C54.7575 34.7678 54.8622 34.9252 55.0193 35.0301L56.485 36.499L64.3897 28.5776C63.8662 27.8956 63.2904 27.2661 62.6622 26.6366L43.3978 7.4362C33.5039 -2.47873 17.3281 -2.47873 7.43413 7.4362C-2.45981 17.3511 -2.45981 33.5613 7.43413 43.4762L26.6462 62.729C27.2744 63.3585 27.9025 63.9356 28.5831 64.4602L36.4878 56.5387L35.7549 55.8043Z" fill="white"/>
    <path opacity="0.9" d="M108.205 72.3287L100.196 80.3026L88.4172 68.4992L96.3743 60.4728L108.205 72.3287Z" fill="url(#paint0_linear_843_110)"/>
    <path opacity="0.9" d="M80.1462 100.395L72.1891 108.369L60.4106 96.3906L68.3677 88.35L80.1462 100.395Z" fill="url(#paint1_linear_843_110)"/>
    <path opacity="0.9" d="M15.9143 51.9736L23.8713 43.9473L35.9116 56.0131L27.9022 63.987L15.9143 51.9736Z" fill="url(#paint2_linear_843_110)"/>
    <path opacity="0.9" d="M43.8679 23.9104L51.8773 15.9365L63.8652 27.8031L55.9082 35.9762L43.8679 23.9104Z" fill="url(#paint3_linear_843_110)"/>
    <path d="M54.7046 89.2715L35.4926 108.524C29.9436 114.085 20.9919 114.085 15.4429 108.524C12.7731 105.849 11.3074 102.282 11.3074 98.452C11.3074 94.6224 12.7731 91.1076 15.4429 88.4321L34.655 69.1793C34.812 69.022 34.9691 68.8646 35.1785 68.7072L49.6268 54.2282C48.0039 53.9135 46.3811 53.7561 44.6536 53.7561C37.8483 53.7561 31.4617 56.4316 26.6456 61.2054L7.43354 80.4582C2.61744 85.2845 0 91.6847 0 98.5045C0 105.324 2.66979 111.724 7.43354 116.551C12.4067 121.534 18.898 124 25.3892 124C31.8805 124 38.4241 121.534 43.3972 116.551L62.6093 97.2979C67.4254 92.4716 70.0428 86.0714 70.0428 79.2517C70.0428 77.5205 69.8858 75.8417 69.5717 74.2155L55.6469 88.1698C55.3851 88.5371 55.071 88.9043 54.7046 89.2715Z" fill="white"/>
    <path d="M115.953 7.80168C106.059 -2.11325 89.8829 -2.11325 79.9889 7.80168L60.7769 27.0545C54.5474 33.2448 52.244 41.9531 53.8668 50.0319L67.7393 36.1825C68.0534 35.7628 68.4198 35.3956 68.7863 35.0284L87.946 15.7756C90.7205 12.9952 94.3325 11.6313 97.9446 11.6313C101.557 11.6313 105.221 12.9952 107.996 15.7756C113.545 21.3363 113.545 30.307 107.996 35.8678L88.7836 55.0681C88.6789 55.173 88.5218 55.2779 88.4171 55.4353L73.8641 70.0192C75.4869 70.3339 77.1621 70.4913 78.7849 70.4913C85.2762 70.4913 91.8198 68.0257 96.7929 63.042L116.005 43.7892C125.899 33.8743 125.899 17.7166 115.953 7.80168Z" fill="white"/>
    <path d="M204.169 112.481C176.758 112.481 157.61 91.7643 157.61 62.0001C157.61 32.1047 177.021 11.3878 204.694 11.3878C226.989 11.3878 244.564 26.2044 247.318 47.0524H233.678C230.662 32.8915 219.251 23.9753 204.3 23.9753C184.234 23.9753 170.856 39.3163 170.856 62.0001C170.856 84.5527 184.234 99.7626 204.3 99.7626C219.383 99.7626 231.055 91.3709 234.203 78.1278H247.974C244.957 98.1891 226.858 112.481 204.169 112.481Z" fill="white"/>
    <path d="M271.712 12.9613V111.039H258.859V12.9613H271.712Z" fill="white"/>
    <path d="M316.697 112.612C296.893 112.612 283.647 98.4514 283.385 76.5544C283.647 55.1818 297.025 41.0209 316.697 41.0209C336.37 41.0209 349.748 55.1818 350.01 76.5544C349.748 98.4514 336.501 112.612 316.697 112.612ZM316.697 100.549C329.026 100.549 337.288 90.9775 337.288 76.8166C337.288 62.5245 329.157 52.9528 316.697 52.9528C304.238 52.9528 296.106 62.5245 296.106 76.8166C296.106 90.9775 304.369 100.549 316.697 100.549Z" fill="white"/>
    <path d="M395.257 112.612C386.864 112.612 379.388 109.859 374.011 104.614V111.039H361.42V12.9613H374.273V48.6258C379.65 43.5122 386.732 41.0209 395.257 41.0209C414.668 41.0209 427.652 55.313 427.652 76.8166C427.652 98.3202 414.668 112.612 395.257 112.612ZM394.601 100.418C407.061 100.418 414.668 91.3709 414.668 76.8166C414.668 62.2623 406.93 53.0839 394.601 53.0839C382.142 53.0839 374.404 62.2623 374.404 76.8166C374.404 91.3709 382.011 100.418 394.601 100.418Z" fill="white"/>
    <path d="M468.047 112.612C448.505 112.612 435.521 98.4514 435.259 76.5544C435.521 55.0507 448.505 41.0209 468.047 41.0209C487.719 41.0209 500.834 55.1818 500.834 76.5544V80.3568L447.98 80.2257C449.161 92.551 456.899 100.549 468.047 100.549C477.489 100.418 484.703 94.9111 486.408 86.3883H499.129C497.162 101.729 484.44 112.612 468.047 112.612ZM448.898 68.6872L487.195 68.8183C484.834 58.8532 477.752 52.9528 468.047 52.9528C458.472 52.9528 451.259 58.9843 448.898 68.6872Z" fill="white"/>
    <path d="M524.966 75.7676V111.039H512.114V42.4632H525.098V47.9702C530.868 42.8566 538.869 40.3653 547 41.152V53.215C533.229 51.7727 524.966 60.2955 524.966 75.7676Z" fill="white"/>
    <defs>
        <linearGradient id="paint0_linear_843_110" x1="104.176" y1="76.3214" x2="92.3512" y2="64.5215" gradientUnits="userSpaceOnUse">
            <stop stop-color="white" stop-opacity="0"/>
            <stop offset="0.8" stop-color="#2864FF" stop-opacity="0.5"/>
        </linearGradient>
        <linearGradient id="paint1_linear_843_110" x1="76.1813" y1="104.376" x2="64.3566" y2="92.5763" gradientUnits="userSpaceOnUse">
            <stop stop-color="white" stop-opacity="0"/>
            <stop offset="0.8" stop-color="#2864FF" stop-opacity="0.5"/>
        </linearGradient>
        <linearGradient id="paint2_linear_843_110" x1="20.0417" y1="47.9906" x2="32.0689" y2="59.9919" gradientUnits="userSpaceOnUse">
            <stop stop-color="white" stop-opacity="0"/>
            <stop offset="0.8" stop-color="#2864FF" stop-opacity="0.5"/>
        </linearGradient>
        <linearGradient id="paint3_linear_843_110" x1="47.7889" y1="19.912" x2="59.8166" y2="31.9139" gradientUnits="userSpaceOnUse">
            <stop stop-color="white" stop-opacity="0"/>
            <stop offset="0.8" stop-color="#2864FF" stop-opacity="0.5"/>
        </linearGradient>
    </defs>
</svg>
